<svg id="Capa_1" enable-background="new 0 0 512 512" height="512" viewBox="0 0 512 512" width="512" xmlns="http://www.w3.org/2000/svg"><g><circle cx="256" cy="256" fill="#ff641a" r="256"/><g><path d="m512 256c0-19.012-2.09-37.533-6.022-55.363l-129.297-129.298-268.045 289.187 151.422 151.422c139.512-2.17 251.942-115.92 251.942-255.948z" fill="#ef3800"/></g><g><path d="m299.538 365.197h-121.007l-10-121.126 10-113.91h121.007l10 117.785z" fill="#fff"/><path d="m299.538 130.161h107.143v235.036h-107.143z" fill="#e3eaee"/><path d="m299.538 71.339h-77.143v58.822h77.143l10-29.411z" fill="#ffd300"/><path d="m299.538 337.607-36.947-10-40.196 10v103.054h77.143l10-51.348z" fill="#ffd300"/><path d="m376.681 440.661v-103.054l-38.572-10-38.571 10v103.054z" fill="#ff9e00"/><path d="m299.538 337.607h-77.143v-30h77.143l10 15z" fill="#5a5a5a"/><path d="m178.531 365.196h-59.667c-7.48 0-13.545-6.064-13.545-13.545v-207.946c0-7.48 6.064-13.545 13.545-13.545h59.667c7.48 0 13.545 6.064 13.545 13.545v207.946c0 7.481-6.065 13.545-13.545 13.545z" fill="#a7eaf9"/><path d="m299.538 307.607h77.143v30h-77.143z" fill="#32393f"/><g><g><path d="m299.538 71.339h77.143v58.821h-77.143z" fill="#ff9e00"/></g></g><path d="m299.378 188.786h-68.571v-38.259h68.571l10 21.33z" fill="#9dcfff"/><g><g><path d="m337.95 208.013h30v30h-30z" fill="#3a4de1"/></g></g><path d="m230.807 208.013h30v30h-30z" fill="#5a69e5"/><path d="m299.538 238.013h-15.16v-30h15.16l10 15z" fill="#5a69e5"/><path d="m337.95 257.241h30v30h-30z" fill="#3a4de1"/><path d="m230.807 257.241h30v30h-30z" fill="#5a69e5"/><path d="m299.538 287.241h-15.16v-30h15.16l10 15z" fill="#5a69e5"/><path d="m299.538 208.013h14.84v30h-14.84z" fill="#3a4de1"/><path d="m299.538 257.241h14.84v30h-14.84z" fill="#3a4de1"/><path d="m299.378 150.527h68.571v38.259h-68.571z" fill="#3ba9ff"/><path d="m299.378 374.134h-48.302v-15h48.302l10 7.5z" fill="#fff"/><path d="m299.378 419.134h-48.302v-15h48.302l10 8.366z" fill="#fff"/><g fill="#e3eaee"><path d="m299.378 359.134h48.622v15h-48.622z"/><path d="m299.378 404.134h48.622v15h-48.622z"/></g></g></g></svg>